<?xml version="1.0" standalone="no"?>
<!DOCTYPE svg PUBLIC "-//W3C//DTD SVG 20010904//EN"
 "http://www.w3.org/TR/2001/REC-SVG-20010904/DTD/svg10.dtd">
<svg version="1.0" xmlns="http://www.w3.org/2000/svg"
 width="50.000000pt" height="50.000000pt" viewBox="0 0 50.000000 50.000000"
 preserveAspectRatio="xMidYMid meet">
<metadata>
Created by potrace 1.15, written by Peter Selinger 2001-2017
</metadata>
<g transform="translate(0.000000,50.000000) scale(0.100000,-0.100000)"
fill="#000000" stroke="none">
<path d="M177 480 c-54 -43 -59 -144 -11 -215 13 -20 24 -42 24 -49 0 -8 9
-20 20 -27 17 -12 17 -16 6 -32 -12 -16 -14 -15 -26 13 -7 16 -15 30 -19 30
-19 -1 -107 -59 -125 -82 -26 -36 -14 -76 29 -98 43 -21 307 -21 350 0 72 36
52 103 -45 153 l-54 27 -16 -30 c-15 -28 -16 -29 -28 -10 -10 16 -9 21 8 30
11 6 20 17 20 25 0 8 11 30 24 50 48 71 43 172 -11 215 -18 14 -41 20 -73 20
-32 0 -55 -6 -73 -20z"/>
</g>
</svg>
